<svg width="1200" height="70" viewBox="0 0 1200 70" fill="none" xmlns="http://www.w3.org/2000/svg">
<rect width="1200" height="64" fill="white"/>
<g clip-path="url(#clip0_33716_713)">
<path d="M210 0H70L130.362 65.7C135.638 71.5 144.362 71.5 149.638 65.7L210 0Z" fill="#81B3D3"/>
<path d="M107.232 0.5L139.797 38.4L172.261 0.7L107.232 0.5Z" fill="#23A9E1"/>
<path d="M131.986 14.7H149.536C148.217 13.9 145.073 10.1 143.449 11.5C143.348 11.6 138.478 5.80001 135.333 8.60001C132.594 11.1 131.275 8.30001 128.232 10.2C124.58 12.6 130.261 13.9 131.986 14.7ZM159.073 11.2L149.131 11.3C153.087 6.80001 154.812 7.30001 159.073 11.2Z" fill="white"/>
<path d="M169.014 3.6V1.2H171.145L169.014 3.6ZM119.101 13C119.203 13.1 121.536 10.6 125.29 8.1C128.739 5.8 134.014 3.2 139.899 3.2C145.783 3.2 151.159 5.9 154.609 8.2C158.362 10.6 160.696 13 160.797 13.1L158.261 16.1C153.696 16.7 150.449 20 145.986 19.3C143.754 18.9 143.652 17.7 143.043 16.4C142.536 15.4 141.725 15.6 140.71 15.2C139.797 14.8 139.188 14.1 137.261 14.5C135.638 14.9 135.435 17.4 133.304 17.3C132.188 17.2 132.087 15.7 130.464 13.7C126.304 8.8 122.511 9.41045 119.873 13.9104L119.101 13ZM110.58 1.2V3.1L108.957 1.2H110.58ZM165.261 1.2H168.507V4.2L165.261 8V1.2ZM161.101 12.6V1.2H164.652V8.6L161.101 12.6ZM160.594 2.2V12.1C159.478 11 158.261 10 156.942 9.1L160.594 2.2ZM156.435 1.9V8.7C155.928 8.4 155.522 8 154.913 7.7C154.203 7.3 153.493 6.8 152.681 6.4L156.435 1.9ZM151.971 1.7V6C150.957 5.5 149.841 5 148.826 4.5L151.971 1.7ZM152.58 1.2H156.333L152.58 5.8V1.2ZM156.942 1.2H160.594L156.942 8.3V1.2ZM148.014 1.2H151.971L148.42 4.3C148.319 4.3 148.217 4.2 148.116 4.2L148.014 1.2ZM147.507 1.6V4C146.493 3.6 145.478 3.3 144.362 3.1L147.507 1.6ZM143.246 1.6V2.9C142.536 2.8 141.826 2.7 141.014 2.6L143.246 1.6ZM136.348 1.6L138.58 2.6C137.768 2.6 137.058 2.7 136.348 2.9V1.6ZM132.188 1.6L135.333 3.1C134.217 3.3 133.203 3.6 132.188 4V1.6ZM135.841 2.8L132.493 1.2H135.841V2.8ZM139.391 2.4L136.551 1.1H139.391V2.4ZM140.101 1.2H143.043L140.101 2.5V1.2ZM143.855 1.2H147.101L143.855 2.8V1.2ZM131.275 4.3L127.725 1.2H131.681V4.2L131.275 4.3ZM127.623 1.7L130.768 4.4C129.652 4.8 128.638 5.3 127.623 5.9V1.7ZM123.261 1.9L126.913 6.4C125.594 7.1 124.377 7.9 123.261 8.8V1.9ZM119 2.2L122.652 9.2C121.333 10.2 120.116 11.2 119 12.4V2.2ZM122.754 8.2L119.101 1.1H122.754V8.2ZM127.116 5.7L123.362 1.1H127.116V5.7ZM114.333 7.5L111.087 3.7V1.2H114.333V7.5ZM114.942 1.2H118.493V12.4L114.942 8.2V1.2ZM106.522 0V14.6L140 54.5L173.478 15V0H106.522Z" fill="#491213"/>
<path d="M137.362 46L140 41.8L142.638 46L140 50.2L137.362 46Z" fill="#23A9E1"/>
<path d="M145.275 30.6C141.826 28.6 142.638 27.1 145.478 25.7C147 25 150.348 22.3 151.667 23.2L145.275 30.6ZM142.942 33.1C140.913 33 138.58 32.7 136.551 33.2C137.768 33.5 140.812 34.4 137.971 35.1C138.985 36.5 140.609 36.4 141.623 35.2C141.217 35 140.913 34.7 140.609 34.5C141.725 34.2 142.739 33.6 142.942 33.1ZM144.159 31.5C143.246 30.7 142.232 30.7 141.42 31.5C140.203 29.4 135.942 30.1 133.913 29.8C135.029 32.4 143.652 32.9 144.159 31.5ZM137.261 29.3C135.638 28.8 130.362 28.9 133.812 27.5C134.927 27.1 140.609 27.6 137.261 29.3ZM139.29 26.3C138.783 25.2 139.696 23.9 141.014 24.9C142.232 25.7 140.406 26.9 139.29 26.3ZM136.348 26.4C134.014 27.1 130.971 25.6 134.725 24.9C137.058 24.4 139.493 25.4 136.348 26.4C136.449 26.4 136.246 26.4 136.348 26.4ZM133.71 20.2C133.203 21.8 132.188 22.1 132.29 20.2C132.391 17.9 133.913 18.5 135.536 17.6C136.855 16.9 137.565 14.2 139.898 15.8C140.913 16.5 142.13 15.9 142.435 17C142.435 16.9 139.493 23.7 141.116 23.7C137.869 23.7 139.29 19.9 140.507 17.3C139.29 17.9 137.362 21.6 138.985 22.3C138.174 23.4 135.536 24.9 134.217 23.8C133.101 22.8 133.71 21.5 133.71 20.2ZM129.652 23C123.971 23 127.826 14.4 129.754 14.9C131.985 15.6 131.681 23.1 129.652 23ZM123.362 14.8C120.725 14.7 121.841 12.2 123.667 11.7C125.391 11.2 128.942 12.8 130.159 13.9C128.333 14.5 126 14.4 123.971 14.5C123.768 12.5 123.261 13.2 123.362 14.8Z" fill="#DC6243"/>
<path d="M142.841 25.8C139.899 22.8 147.203 23.1 148.42 22C149.232 22.3 155.522 16.6 157.044 17C155.928 18.3 153.594 22.3 151.971 22.3C150.652 22.3 149.333 22.1 148.319 23C146.797 24.4 144.362 25.1 142.841 25.8Z" fill="#F49774"/>
<path d="M143.754 22.2C142.131 23.1 140.609 19.7 143.449 20C145.275 20.2 147.203 19.8 148.928 20.1C147.609 21.6 145.783 22.4 143.754 22.2Z" fill="#F4B1A4"/>
<path d="M121.841 20.9C122.145 21.3 122.449 21.7 122.348 22.3C122.348 22.7 121.739 23.3 122.145 23.5L123.667 21.7C123.261 21.6 120.116 17.9 120.116 17.5L117.986 18.6C118.087 19 118.797 18.6 119.203 18.6C119.71 18.6 120.116 19 120.522 19.3C119.406 20.2 116.667 22.6 116.362 22.6C116.261 22.6 115.652 22.2 115.652 22.6C115.652 22.8 116.261 23.3 116.362 23.4L117.783 25.1C118.188 24.9 117.681 24.6 117.884 24.3C117.986 24.1 121.13 21.6 121.841 20.9ZM118.391 16.4C118.696 16.3 118.797 16.7 119 16.4L117.377 14.5C117.174 14.2 116.87 13.9 116.87 14.5C116.971 14.9 112.812 18.2 112.609 18.3C112.304 18.4 112.101 18 111.899 18.4C112.406 19 112.812 19.5 113.319 20.1C113.522 20.3 113.623 20.5 113.826 20.7C114.029 20.9 113.928 20.3 113.928 20.3C113.826 20 114.232 19.7 114.536 19.5C115.551 18.5 118.087 16.4 118.391 16.4ZM112.609 15.8C111.493 16.1 110.174 15.7 109.87 14.5C109.464 13.3 110.275 12.1 111.188 11.4C112.101 10.7 113.522 10.8 114.029 11.9C114.232 12.4 114.13 13 113.928 13.5C113.826 13.8 113.522 14.1 113.928 14.3C114.536 13.6 115.044 12.9 115.652 12.2C114.942 11.8 114.638 11.1 114.13 10.5C113.522 9.79999 112.812 9.09999 111.797 8.99999C109.87 8.69999 108.145 10.7 107.942 12.4C107.841 13.3 108.145 14.2 108.754 15C109.261 15.6 109.971 16.1 110.377 16.8C110.58 16.9 112.203 16.1 112.507 16C112.71 16 112.609 15.9 112.609 15.8C112.609 15.8 112.101 16 112.609 15.8ZM138.478 39.4C137.768 38.9 135.841 36.4 135.435 35.9L135.232 35.6L135.029 35.7C134.928 35.8 135.13 36.1 135.029 36.3C134.522 37.1 131.275 39.5 131.073 39.7C130.667 39.9 130.261 39.6 130.058 39.9C130.565 40.5 131.884 42.2 132.087 42.2C132.391 42.2 132.188 41.7 132.188 41.6C132.29 41.4 133.913 40 134.522 39.5C134.725 39.3 134.928 39.8 135.13 40C135.333 40.3 135.435 40.7 135.333 41C135.232 41.2 134.826 41.6 135.13 41.8C135.536 41.3 136.652 40 136.855 39.8C137.058 39.6 136.449 39.8 136.551 39.7C136.348 39.8 136.044 39.9 135.841 39.7C135.739 39.7 135.13 39 135.232 38.9C135.536 38.7 135.841 38.3 136.246 38.2C136.855 38.1 137.261 39.2 137.362 39.6C137.464 40 137.464 40.4 137.261 40.7C137.159 41 136.957 41.2 137.261 41.3L138.681 39.4C138.681 39.5 138.58 39.5 138.478 39.4C138.58 39.5 138.377 39.4 138.478 39.4ZM129.145 30.5C128.435 30.5 127.725 30.8 127.116 31.3C125.696 32.5 125.493 34.6 126.609 36.1C127.928 37.8 130.058 38 131.783 36.8C133.203 35.6 133.406 33.5 132.29 32C131.478 31 130.261 30.5 129.145 30.5ZM130.362 31.9C131.275 31.8 131.884 32.7 131.478 33.7C131.073 34.7 130.058 35.7 129.044 36.1C127.826 36.6 127.015 35.6 127.522 34.4C127.928 33.4 128.942 32.4 129.957 32C130.058 32 130.159 31.9 130.362 31.9ZM127.522 27.3C127.826 27.3 128.13 27.7 128.333 27.3L126.913 25.6C126.507 25.8 126.913 26 126.812 26.2C126.609 26.5 125.087 26.7 124.681 26.8C124.783 26.4 125.29 25.1 125.493 25C125.899 24.7 126.101 25.3 126.304 24.9L124.478 22.8C124.275 22.6 124.073 22.1 123.87 22.4C123.87 22.4 123.87 23.4 123.768 23.5C123.667 23.7 123.159 25.9 122.551 26.4C122.246 26.7 121.029 27.7 120.725 27.8C120.42 27.9 120.217 27.4 119.913 27.8L121.536 29.7C121.638 29.8 121.942 30.3 122.044 30.3C122.348 30.4 122.044 29.7 122.145 29.6C122.246 29.3 123.768 27.8 124.478 27.7C125.391 27.5 126.507 27.2 127.522 27.3C127.725 27.3 127.319 27.3 127.522 27.3ZM152.073 34C152.174 34.4 152.275 34.9 152.174 35.3C152.073 35.9 151.565 37.2 150.754 36.8C149.942 36.4 149.333 35.7 148.623 35.1C149.13 34.5 149.638 34 150.551 34.3C150.754 34.4 150.957 34.3 150.754 34.1C150.449 33.9 148.725 32.8 148.623 32.9C148.42 33.1 148.928 33.5 148.725 33.9C148.623 34.2 148.319 34.4 148.116 34.7C147.609 34.3 146.899 33.9 147.406 33.2C147.812 32.8 148.217 32.4 148.826 32.3C149.232 32.2 150.044 32.6 150.145 32.2C149.435 31.9 148.725 31.5 148.015 31.2C148.116 31.7 145.783 34.1 145.275 34.7C145.174 34.8 144.87 35.1 144.87 35.2C144.87 35.5 145.275 35.3 145.275 35.3C145.58 35.2 149.739 38.6 149.841 38.9C149.942 39.1 149.739 39.3 149.841 39.4C149.841 39.4 149.942 39.5 150.044 39.5C150.348 39.2 152.986 35.6 153.594 35.5C153.087 34.7 152.58 33.9 152.073 33.1C151.667 33.3 151.971 33.8 152.073 34ZM148.015 38.4C146.696 37.5 144.362 39.2 143.957 39.4C143.246 39.7 142.739 39 143.145 38.4C143.449 37.9 144.058 37.6 144.667 37.6C144.87 37.6 145.58 37.7 145.58 37.6C145.681 37.5 145.681 37.5 145.58 37.4C144.971 37 144.464 36.6 143.855 36.3C143.754 37 142.942 37.4 142.536 37.9C142.029 38.5 141.522 39.2 141.522 39.9C141.522 40.6 141.928 41.3 142.638 41.6C143.348 42 144.159 41.7 144.87 41.3C145.275 41 145.681 40.7 146.087 40.5C146.696 40.2 147.609 40.5 147.406 41.3C147.203 42 146.493 42.6 145.783 42.8C145.377 42.9 144.971 42.9 144.565 42.7C144.261 42.6 143.957 42.2 143.754 42.6L146.087 44.2C146.188 43.7 146.391 43.5 146.797 43.2C147.304 42.8 147.71 42.3 148.116 41.8C148.928 40.9 149.232 39.3 148.015 38.4ZM165.87 10.3C165.87 10.4 165.87 10.4 165.87 10.3L164.957 11.3L164.145 12.3C163.942 12.5 163.841 12.6 164.145 12.8C164.652 12.5 167.696 17.6 167.493 18.3C166.986 18.5 162.928 15 162.826 14.8C162.826 14.7 163.029 14.1 162.725 14.2C162.623 14.2 162.217 14.8 162.116 14.9L161.507 15.6C161.71 15.9 161.812 15.6 162.116 15.6C162.319 15.7 163.333 16.5 163.638 16.7C163.13 16.7 161.913 16.8 161.71 16.8C161.101 16.9 161.406 16.4 161 16.2L159.478 18L158.565 19C158.565 19 158.565 19 158.565 19.1C158.768 19.3 158.667 19.2 158.971 19.1C159.275 19 163.333 22.3 163.435 22.5C163.638 22.8 163.333 23.1 163.739 23.3L164.957 21.9C165.058 21.8 165.058 21.8 164.957 21.8C164.652 21.6 164.652 21.9 164.246 21.9C163.942 21.8 161.304 19.7 160.391 18.9L165.768 18.7C165.971 18.7 166.478 19.3 166.478 19.5C166.377 19.7 166.174 19.9 166.478 20C166.783 19.6 167.087 19.3 167.391 18.9L167.493 18.7C167.594 18.7 167.594 18.6 167.594 18.5L167.696 18.4C168 18.1 168.913 17.1 168.812 17C168.507 16.7 168.406 17.3 168 17C167.797 16.8 167.188 15.8 167.087 15.6C166.884 15.3 167.493 15 167.696 14.9C168.203 14.6 169.826 14.1 170.029 15.1C170.029 15.3 169.826 15.5 169.928 15.6C169.928 15.6 170.029 15.8 170.13 15.7L172.261 13.1C172.159 13 172.159 13 172.058 12.9C171.551 13.4 166.478 11.4 166.174 11.1C166.073 10.9 166.073 10.3 165.87 10.3ZM165.667 12.9C166.478 13.2 167.188 13.5 168 13.9C167.797 14 167.594 14.1 167.391 14.2C167.188 14.3 166.986 14.5 166.783 14.7L165.667 12.9ZM158.971 20.6C157.855 20.5 156.739 21 155.928 21.9C154.71 23.4 154.812 25.6 156.333 26.8C157.855 28 160.087 27.7 161.304 26.3C162.522 24.8 162.42 22.6 160.899 21.4C160.391 21 159.681 20.7 158.971 20.6ZM157.551 22.2C158.159 22.2 158.87 22.6 159.275 22.9C160.087 23.4 161.507 24.6 160.797 25.6C160.797 25.5 160.899 25.5 160.696 25.7C159.884 26.5 158.464 25.8 157.754 25.2C157.044 24.7 155.725 23.5 156.536 22.5C156.841 22.3 157.145 22.2 157.551 22.2ZM154.406 26.5C153.188 26.4 151.971 27 151.058 28.1C150.449 28.9 149.739 29.6 149.13 30.4C149.333 30.7 149.638 30.3 149.942 30.5C150.246 30.7 154.101 33.8 154.101 34C154.203 34.3 153.899 34.4 154.203 34.6C154.304 34.7 157.145 31.2 157.449 30.6C157.855 29.5 157.551 28.2 156.638 27.4C156.739 27.5 156.841 27.5 156.638 27.4C155.826 26.8 155.116 26.5 154.406 26.5ZM153.29 28.1C153.391 28.1 153.493 28.1 153.594 28.1C155.015 28.5 157.044 30.2 155.725 31.7C155.522 31.9 155.725 31.7 155.319 32.1C155.116 32.3 151.058 29.1 151.261 28.9C151.667 28.4 152.58 28 153.29 28.1Z" fill="white"/>
</g>
<path d="M263.34 27.44H257.94V39H255.2V25H263.34V27.44ZM267.435 31.3H265.455C265.375 32.2467 265.282 33.1867 265.175 34.12C265.069 35.0533 264.895 35.8933 264.655 36.64C264.429 37.3733 264.115 37.9733 263.715 38.44C263.315 38.8933 262.795 39.12 262.155 39.12C261.382 39.12 260.835 39.02 260.515 38.82L260.835 36.66C261.049 36.74 261.249 36.78 261.435 36.78C261.702 36.78 261.935 36.6667 262.135 36.44C262.335 36.2133 262.502 35.8067 262.635 35.22C262.782 34.6333 262.895 33.84 262.975 32.84C263.069 31.8267 263.135 30.5467 263.175 29H270.035V39H267.435V31.3ZM272.228 29.58C272.762 29.34 273.395 29.1533 274.128 29.02C274.862 28.8733 275.628 28.8 276.428 28.8C277.122 28.8 277.702 28.8867 278.168 29.06C278.635 29.22 279.002 29.4533 279.268 29.76C279.548 30.0667 279.742 30.4333 279.848 30.86C279.968 31.2867 280.028 31.7667 280.028 32.3C280.028 32.8867 280.008 33.48 279.968 34.08C279.928 34.6667 279.902 35.2467 279.888 35.82C279.888 36.3933 279.908 36.9533 279.948 37.5C279.988 38.0333 280.088 38.54 280.248 39.02H278.128L277.708 37.64H277.608C277.342 38.0533 276.968 38.4133 276.488 38.72C276.022 39.0133 275.415 39.16 274.668 39.16C274.202 39.16 273.782 39.0933 273.408 38.96C273.035 38.8133 272.715 38.6133 272.448 38.36C272.182 38.0933 271.975 37.7867 271.828 37.44C271.682 37.08 271.608 36.68 271.608 36.24C271.608 35.6267 271.742 35.1133 272.008 34.7C272.288 34.2733 272.682 33.9333 273.188 33.68C273.708 33.4133 274.322 33.2333 275.028 33.14C275.748 33.0333 276.548 33 277.428 33.04C277.522 32.2933 277.468 31.76 277.268 31.44C277.068 31.1067 276.622 30.94 275.928 30.94C275.408 30.94 274.855 30.9933 274.268 31.1C273.695 31.2067 273.222 31.3467 272.848 31.52L272.228 29.58ZM275.528 37.02C276.048 37.02 276.462 36.9067 276.768 36.68C277.075 36.44 277.302 36.1867 277.448 35.92V34.62C277.035 34.58 276.635 34.5733 276.248 34.6C275.875 34.6267 275.542 34.6867 275.248 34.78C274.955 34.8733 274.722 35.0067 274.548 35.18C274.375 35.3533 274.288 35.5733 274.288 35.84C274.288 36.2133 274.395 36.5067 274.608 36.72C274.835 36.92 275.142 37.02 275.528 37.02ZM282.21 29.02C282.677 28.98 283.237 28.94 283.89 28.9C284.557 28.86 285.27 28.84 286.03 28.84C287.497 28.84 288.537 29.0533 289.15 29.48C289.777 29.8933 290.09 30.52 290.09 31.36C290.09 31.8267 289.957 32.28 289.69 32.72C289.424 33.16 289.004 33.48 288.43 33.68V33.76C289.15 33.92 289.67 34.2067 289.99 34.62C290.31 35.02 290.47 35.54 290.47 36.18C290.47 37.18 290.084 37.9267 289.31 38.42C288.55 38.9133 287.324 39.16 285.63 39.16C285.07 39.16 284.477 39.14 283.85 39.1C283.224 39.0733 282.677 39.0333 282.21 38.98V29.02ZM284.75 37C284.937 37.0267 285.11 37.0467 285.27 37.06C285.43 37.0733 285.63 37.08 285.87 37.08C286.59 37.08 287.104 36.98 287.41 36.78C287.717 36.58 287.87 36.2733 287.87 35.86C287.87 35.5133 287.737 35.2333 287.47 35.02C287.217 34.7933 286.757 34.68 286.09 34.68H284.75V37ZM286.13 33.08C286.557 33.08 286.904 32.98 287.17 32.78C287.45 32.5667 287.59 32.3 287.59 31.98C287.59 31.6333 287.47 31.3733 287.23 31.2C287.004 31.0133 286.584 30.92 285.97 30.92C285.664 30.92 285.417 30.9267 285.23 30.94C285.057 30.9533 284.897 30.9667 284.75 30.98V33.08H286.13ZM298.168 35.06H294.908V39H292.308V29H294.908V32.76H298.168V29H300.768V39H298.168V35.06ZM302.99 29.58C303.523 29.34 304.157 29.1533 304.89 29.02C305.623 28.8733 306.39 28.8 307.19 28.8C307.883 28.8 308.463 28.8867 308.93 29.06C309.397 29.22 309.763 29.4533 310.03 29.76C310.31 30.0667 310.503 30.4333 310.61 30.86C310.73 31.2867 310.79 31.7667 310.79 32.3C310.79 32.8867 310.77 33.48 310.73 34.08C310.69 34.6667 310.663 35.2467 310.65 35.82C310.65 36.3933 310.67 36.9533 310.71 37.5C310.75 38.0333 310.85 38.54 311.01 39.02H308.89L308.47 37.64H308.37C308.103 38.0533 307.73 38.4133 307.25 38.72C306.783 39.0133 306.177 39.16 305.43 39.16C304.963 39.16 304.543 39.0933 304.17 38.96C303.797 38.8133 303.477 38.6133 303.21 38.36C302.943 38.0933 302.737 37.7867 302.59 37.44C302.443 37.08 302.37 36.68 302.37 36.24C302.37 35.6267 302.503 35.1133 302.77 34.7C303.05 34.2733 303.443 33.9333 303.95 33.68C304.47 33.4133 305.083 33.2333 305.79 33.14C306.51 33.0333 307.31 33 308.19 33.04C308.283 32.2933 308.23 31.76 308.03 31.44C307.83 31.1067 307.383 30.94 306.69 30.94C306.17 30.94 305.617 30.9933 305.03 31.1C304.457 31.2067 303.983 31.3467 303.61 31.52L302.99 29.58ZM306.29 37.02C306.81 37.02 307.223 36.9067 307.53 36.68C307.837 36.44 308.063 36.1867 308.21 35.92V34.62C307.797 34.58 307.397 34.5733 307.01 34.6C306.637 34.6267 306.303 34.6867 306.01 34.78C305.717 34.8733 305.483 35.0067 305.31 35.18C305.137 35.3533 305.05 35.5733 305.05 35.84C305.05 36.2133 305.157 36.5067 305.37 36.72C305.597 36.92 305.903 37.02 306.29 37.02ZM318.252 35.22L317.052 35.46L315.132 39H312.032L313.972 35.86L314.952 35.12C314.299 35.0133 313.759 34.7067 313.332 34.2C312.905 33.68 312.692 33.0333 312.692 32.26C312.692 31.0467 313.092 30.1533 313.892 29.58C314.705 29.0067 315.945 28.72 317.612 28.72C318.252 28.72 318.845 28.7533 319.392 28.82C319.952 28.8867 320.439 28.96 320.852 29.04V39H318.252V35.22ZM318.252 33.86V31.1C318.105 31.0333 317.945 30.9867 317.772 30.96C317.599 30.9333 317.432 30.92 317.272 30.92C316.672 30.92 316.205 31.0467 315.872 31.3C315.539 31.5533 315.372 31.9333 315.372 32.44C315.372 32.9467 315.552 33.32 315.912 33.56C316.285 33.8 316.825 33.9133 317.532 33.9L318.252 33.86Z" fill="black"/>
<line x1="254" y1="64" x2="322" y2="64" stroke="#756257" stroke-width="2"/>
<path d="M354.76 32C354.76 29.6667 355.273 27.8733 356.3 26.62C357.327 25.3533 358.793 24.72 360.7 24.72C361.7 24.72 362.573 24.8933 363.32 25.24C364.067 25.5867 364.687 26.08 365.18 26.72C365.673 27.36 366.04 28.1267 366.28 29.02C366.52 29.9133 366.64 30.9067 366.64 32C366.64 34.3333 366.12 36.1333 365.08 37.4C364.053 38.6533 362.593 39.28 360.7 39.28C359.687 39.28 358.807 39.1067 358.06 38.76C357.313 38.4133 356.693 37.92 356.2 37.28C355.72 36.64 355.36 35.8733 355.12 34.98C354.88 34.0867 354.76 33.0933 354.76 32ZM357.64 32C357.64 32.7067 357.7 33.36 357.82 33.96C357.94 34.5467 358.12 35.0533 358.36 35.48C358.613 35.9067 358.933 36.24 359.32 36.48C359.707 36.72 360.167 36.84 360.7 36.84C361.673 36.84 362.427 36.46 362.96 35.7C363.493 34.94 363.76 33.7067 363.76 32C363.76 31.32 363.7 30.6867 363.58 30.1C363.473 29.5133 363.3 29 363.06 28.56C362.82 28.12 362.507 27.78 362.12 27.54C361.733 27.2867 361.26 27.16 360.7 27.16C359.727 27.16 358.973 27.5533 358.44 28.34C357.907 29.1133 357.64 30.3333 357.64 32ZM382.629 38.42C382.203 38.7267 381.656 38.9467 380.989 39.08C380.336 39.2133 379.663 39.28 378.969 39.28C378.129 39.28 377.329 39.1533 376.569 38.9C375.823 38.6333 375.163 38.2133 374.589 37.64C374.016 37.0533 373.556 36.3 373.209 35.38C372.876 34.4467 372.709 33.32 372.709 32C372.709 30.6267 372.896 29.48 373.269 28.56C373.656 27.6267 374.149 26.88 374.749 26.32C375.363 25.7467 376.043 25.34 376.789 25.1C377.536 24.8467 378.283 24.72 379.029 24.72C379.829 24.72 380.503 24.7733 381.049 24.88C381.609 24.9867 382.069 25.1133 382.429 25.26L381.889 27.58C381.583 27.4333 381.216 27.3267 380.789 27.26C380.376 27.1933 379.869 27.16 379.269 27.16C378.163 27.16 377.269 27.5533 376.589 28.34C375.923 29.1267 375.589 30.3467 375.589 32C375.589 32.72 375.669 33.38 375.829 33.98C375.989 34.5667 376.229 35.0733 376.549 35.5C376.883 35.9133 377.289 36.24 377.769 36.48C378.263 36.7067 378.829 36.82 379.469 36.82C380.069 36.82 380.576 36.76 380.989 36.64C381.403 36.52 381.763 36.3667 382.069 36.18L382.629 38.42ZM391.538 38.14C391.138 38.46 390.592 38.7333 389.898 38.96C389.218 39.1733 388.492 39.28 387.718 39.28C386.105 39.28 384.925 38.8133 384.178 37.88C383.432 36.9333 383.058 35.64 383.058 34C383.058 32.24 383.478 30.92 384.318 30.04C385.158 29.16 386.338 28.72 387.858 28.72C388.365 28.72 388.858 28.7867 389.338 28.92C389.818 29.0533 390.245 29.2733 390.618 29.58C390.992 29.8867 391.292 30.3 391.518 30.82C391.745 31.34 391.858 31.9867 391.858 32.76C391.858 33.04 391.838 33.34 391.798 33.66C391.772 33.98 391.725 34.3133 391.658 34.66H385.658C385.698 35.5 385.912 36.1333 386.298 36.56C386.698 36.9867 387.338 37.2 388.218 37.2C388.765 37.2 389.252 37.12 389.678 36.96C390.118 36.7867 390.452 36.6133 390.678 36.44L391.538 38.14ZM387.818 30.8C387.138 30.8 386.632 31.0067 386.298 31.42C385.978 31.82 385.785 32.36 385.718 33.04H389.438C389.492 32.32 389.378 31.7667 389.098 31.38C388.832 30.9933 388.405 30.8 387.818 30.8ZM403.42 41.28H401.52L401.22 39H394.5L394.2 41.28H392.3V36.7H393.48C393.587 36.5533 393.72 36.3067 393.88 35.96C394.053 35.6 394.22 35.1133 394.38 34.5C394.553 33.8867 394.7 33.1267 394.82 32.22C394.94 31.3133 395 30.24 395 29H401.96V36.7H403.42V41.28ZM399.36 36.82V31.2H397.26C397.233 31.68 397.187 32.1933 397.12 32.74C397.053 33.2733 396.967 33.7933 396.86 34.3C396.767 34.8067 396.653 35.28 396.52 35.72C396.387 36.16 396.24 36.5267 396.08 36.82H399.36ZM404.367 34C404.367 32.3067 404.78 31.0067 405.607 30.1C406.434 29.18 407.594 28.72 409.087 28.72C409.887 28.72 410.58 28.8467 411.167 29.1C411.754 29.3533 412.24 29.7133 412.627 30.18C413.014 30.6333 413.3 31.1867 413.487 31.84C413.687 32.4933 413.787 33.2133 413.787 34C413.787 35.6933 413.374 37 412.547 37.92C411.734 38.8267 410.58 39.28 409.087 39.28C408.287 39.28 407.594 39.1533 407.007 38.9C406.42 38.6467 405.927 38.2933 405.527 37.84C405.14 37.3733 404.847 36.8133 404.647 36.16C404.46 35.5067 404.367 34.7867 404.367 34ZM407.047 34C407.047 34.44 407.087 34.8467 407.167 35.22C407.247 35.5933 407.367 35.92 407.527 36.2C407.687 36.48 407.894 36.7 408.147 36.86C408.414 37.0067 408.727 37.08 409.087 37.08C409.767 37.08 410.274 36.8333 410.607 36.34C410.94 35.8467 411.107 35.0667 411.107 34C411.107 33.08 410.954 32.34 410.647 31.78C410.34 31.2067 409.82 30.92 409.087 30.92C408.447 30.92 407.947 31.16 407.587 31.64C407.227 32.12 407.047 32.9067 407.047 34ZM421.449 35.06H418.189V39H415.589V29H418.189V32.76H421.449V29H424.049V39H421.449V35.06ZM434.331 38.14C433.931 38.46 433.385 38.7333 432.691 38.96C432.011 39.1733 431.285 39.28 430.511 39.28C428.898 39.28 427.718 38.8133 426.971 37.88C426.225 36.9333 425.851 35.64 425.851 34C425.851 32.24 426.271 30.92 427.111 30.04C427.951 29.16 429.131 28.72 430.651 28.72C431.158 28.72 431.651 28.7867 432.131 28.92C432.611 29.0533 433.038 29.2733 433.411 29.58C433.785 29.8867 434.085 30.3 434.311 30.82C434.538 31.34 434.651 31.9867 434.651 32.76C434.651 33.04 434.631 33.34 434.591 33.66C434.565 33.98 434.518 34.3133 434.451 34.66H428.451C428.491 35.5 428.705 36.1333 429.091 36.56C429.491 36.9867 430.131 37.2 431.011 37.2C431.558 37.2 432.045 37.12 432.471 36.96C432.911 36.7867 433.245 36.6133 433.471 36.44L434.331 38.14ZM430.611 30.8C429.931 30.8 429.425 31.0067 429.091 31.42C428.771 31.82 428.578 32.36 428.511 33.04H432.231C432.285 32.32 432.171 31.7667 431.891 31.38C431.625 30.9933 431.198 30.8 430.611 30.8Z" fill="black"/>
<path d="M477.34 27.44H471.94V39H469.2V25H477.34V27.44ZM475.437 34C475.437 32.3067 475.851 31.0067 476.677 30.1C477.504 29.18 478.664 28.72 480.157 28.72C480.957 28.72 481.651 28.8467 482.237 29.1C482.824 29.3533 483.311 29.7133 483.697 30.18C484.084 30.6333 484.371 31.1867 484.557 31.84C484.757 32.4933 484.857 33.2133 484.857 34C484.857 35.6933 484.444 37 483.617 37.92C482.804 38.8267 481.651 39.28 480.157 39.28C479.357 39.28 478.664 39.1533 478.077 38.9C477.491 38.6467 476.997 38.2933 476.597 37.84C476.211 37.3733 475.917 36.8133 475.717 36.16C475.531 35.5067 475.437 34.7867 475.437 34ZM478.117 34C478.117 34.44 478.157 34.8467 478.237 35.22C478.317 35.5933 478.437 35.92 478.597 36.2C478.757 36.48 478.964 36.7 479.217 36.86C479.484 37.0067 479.797 37.08 480.157 37.08C480.837 37.08 481.344 36.8333 481.677 36.34C482.011 35.8467 482.177 35.0667 482.177 34C482.177 33.08 482.024 32.34 481.717 31.78C481.411 31.2067 480.891 30.92 480.157 30.92C479.517 30.92 479.017 31.16 478.657 31.64C478.297 32.12 478.117 32.9067 478.117 34ZM493.74 38.38C493.34 38.6733 492.853 38.8933 492.28 39.04C491.72 39.2 491.14 39.28 490.54 39.28C489.74 39.28 489.06 39.1533 488.5 38.9C487.953 38.6467 487.506 38.2933 487.16 37.84C486.813 37.3733 486.56 36.8133 486.4 36.16C486.253 35.5067 486.18 34.7867 486.18 34C486.18 32.3067 486.56 31.0067 487.32 30.1C488.08 29.18 489.186 28.72 490.64 28.72C491.373 28.72 491.96 28.78 492.4 28.9C492.853 29.02 493.26 29.1733 493.62 29.36L493 31.48C492.693 31.3333 492.386 31.22 492.08 31.14C491.786 31.06 491.446 31.02 491.06 31.02C490.34 31.02 489.793 31.26 489.42 31.74C489.046 32.2067 488.86 32.96 488.86 34C488.86 34.4267 488.906 34.82 489 35.18C489.093 35.54 489.233 35.8533 489.42 36.12C489.606 36.3867 489.846 36.6 490.14 36.76C490.446 36.9067 490.8 36.98 491.2 36.98C491.64 36.98 492.013 36.9267 492.32 36.82C492.626 36.7 492.9 36.56 493.14 36.4L493.74 38.38ZM502.414 31.3H499.594V39H496.914V31.3H494.094V29H502.414V31.3ZM509.594 34.44L509.694 33.02H509.634L508.774 34.48L505.214 39H503.574V29H506.174V33.76L506.054 35.12H506.134L506.954 33.7L510.554 29H512.194V39H509.594V34.44ZM520.332 35.06H517.072V39H514.472V29H517.072V32.76H520.332V29H522.932V39H520.332V35.06ZM531.234 34.44L531.334 33.02H531.274L530.414 34.48L526.854 39H525.214V29H527.814V33.76L527.694 35.12H527.774L528.594 33.7L532.194 29H533.834V39H531.234V34.44ZM545.873 41.28H543.973L543.673 39H536.113V29H538.713V36.7H541.813V29H544.413V36.7H545.873V41.28ZM549.885 36.82C550.285 36.9 550.665 36.94 551.025 36.94C551.625 36.94 552.045 36.8333 552.285 36.62C552.525 36.3933 552.645 36.0467 552.645 35.58C552.645 35.1533 552.525 34.8333 552.285 34.62C552.045 34.3933 551.645 34.28 551.085 34.28C550.645 34.28 550.245 34.3267 549.885 34.42V36.82ZM549.885 32.56C550.205 32.5067 550.525 32.4733 550.845 32.46C551.178 32.4333 551.478 32.42 551.745 32.42C552.425 32.42 552.991 32.5 553.445 32.66C553.898 32.8067 554.265 33.02 554.545 33.3C554.825 33.58 555.025 33.9133 555.145 34.3C555.265 34.6733 555.325 35.08 555.325 35.52C555.325 36.12 555.245 36.6467 555.085 37.1C554.925 37.5533 554.665 37.9333 554.305 38.24C553.945 38.5333 553.478 38.76 552.905 38.92C552.331 39.0667 551.625 39.14 550.785 39.14C550.025 39.14 549.365 39.1267 548.805 39.1C548.258 39.0733 547.751 39.04 547.285 39V29H549.885V32.56ZM556.465 29H559.065V39H556.465V29Z" fill="black"/>
<path d="M893.5 40.0083L889.8 36.3287C890.8 35.0359 891.5 33.3453 891.5 31.4558C891.5 27.0801 887.9 23.5 883.5 23.5C879.1 23.5 875.5 27.1796 875.5 31.5552C875.5 35.9309 879.1 39.511 883.5 39.511C885.3 39.511 887 38.9144 888.4 37.8204L892.1 41.5L893.5 40.0083ZM883.5 37.5221C880.2 37.5221 877.5 34.837 877.5 31.5552C877.5 28.2735 880.2 25.5884 883.5 25.5884C886.8 25.5884 889.5 28.2735 889.5 31.5552C889.5 34.837 886.8 37.5221 883.5 37.5221Z" fill="black"/>
<path d="M927.9 41C927.6 41 927.3 40.9 927.1 40.6C921.7 34.5 920.4 33.1 920.1 32.7C919.4 31.8 919 30.6 919 29.4C919 26.4 921.4 24 924.5 24C925.8 24 927 24.5 928 25.3C929 24.5 930.3 24 931.5 24C934.5 24 937 26.4 937 29.4C937 30.7 936.5 31.9 935.7 32.8L928.7 40.7C928.5 40.9 928.3 41 927.9 41ZM921.9 31.5C922.2 31.9 925.4 35.5 928 38.4L934.2 31.4C934.7 30.9 934.9 30.2 934.9 29.4C934.9 27.6 933.4 26.1 931.6 26.1C930.6 26.1 929.6 26.6 928.9 27.4C928.6 27.7 928.3 27.8 928 27.8C927.7 27.8 927.4 27.6 927.2 27.4C926.5 26.6 925.5 26.1 924.5 26.1C922.7 26.1 921.2 27.6 921.2 29.4C921.1 30.3 921.5 31 921.9 31.5C921.8 31.5 921.8 31.5 921.9 31.5Z" fill="black"/>
<rect x="926" y="11" width="20" height="20" rx="10" fill="#7DB54F"/>
<path d="M931.131 24.26H932.531V19.42L932.631 18.83L932.231 19.3L931.131 20.09L930.751 19.58L932.951 17.88H933.311V24.26H934.681V25H931.131V24.26ZM939.96 19.59C939.96 19.9433 939.893 20.3067 939.76 20.68C939.633 21.0467 939.463 21.4167 939.25 21.79C939.043 22.1633 938.81 22.53 938.55 22.89C938.29 23.2433 938.03 23.58 937.77 23.9L937.28 24.33V24.37L937.92 24.26H940.1V25H936.12V24.71C936.267 24.5567 936.443 24.3667 936.65 24.14C936.857 23.9133 937.07 23.6633 937.29 23.39C937.517 23.11 937.737 22.8167 937.95 22.51C938.17 22.1967 938.367 21.88 938.54 21.56C938.72 21.24 938.863 20.9233 938.97 20.61C939.077 20.2967 939.13 20 939.13 19.72C939.13 19.3933 939.037 19.1233 938.85 18.91C938.663 18.69 938.38 18.58 938 18.58C937.747 18.58 937.5 18.6333 937.26 18.74C937.02 18.84 936.813 18.9567 936.64 19.09L936.31 18.52C936.543 18.32 936.82 18.1633 937.14 18.05C937.46 17.9367 937.803 17.88 938.17 17.88C938.457 17.88 938.71 17.9233 938.93 18.01C939.15 18.09 939.337 18.2067 939.49 18.36C939.643 18.5133 939.76 18.6967 939.84 18.91C939.92 19.1167 939.96 19.3433 939.96 19.59Z" fill="white"/>
<rect x="970" y="14" width="160" height="36" rx="4" fill="#756157"/>
<path d="M1007.98 32.304L1004.86 26.8H1007.5L1009.23 30.032L1009.61 31.168L1009.98 30.032L1011.79 26.8H1014.17L1010.94 32.192L1014.33 38H1011.73L1009.76 34.544L1009.33 33.36L1008.91 34.544L1006.93 38H1004.54L1007.98 32.304ZM1014.9 32.4C1014.9 30.5333 1015.31 29.0987 1016.13 28.096C1016.95 27.0827 1018.12 26.576 1019.65 26.576C1020.45 26.576 1021.15 26.7147 1021.75 26.992C1022.34 27.2693 1022.84 27.664 1023.23 28.176C1023.63 28.688 1023.92 29.3013 1024.11 30.016C1024.31 30.7307 1024.4 31.5253 1024.4 32.4C1024.4 34.2667 1023.99 35.7067 1023.15 36.72C1022.33 37.7227 1021.16 38.224 1019.65 38.224C1018.84 38.224 1018.13 38.0853 1017.54 37.808C1016.94 37.5307 1016.44 37.136 1016.05 36.624C1015.67 36.112 1015.38 35.4987 1015.19 34.784C1014.99 34.0693 1014.9 33.2747 1014.9 32.4ZM1017.2 32.4C1017.2 32.9653 1017.25 33.488 1017.35 33.968C1017.44 34.4373 1017.59 34.8427 1017.78 35.184C1017.98 35.5253 1018.24 35.792 1018.55 35.984C1018.85 36.176 1019.22 36.272 1019.65 36.272C1020.43 36.272 1021.03 35.968 1021.46 35.36C1021.88 34.752 1022.1 33.7653 1022.1 32.4C1022.1 31.856 1022.05 31.3493 1021.95 30.88C1021.87 30.4107 1021.73 30 1021.54 29.648C1021.35 29.296 1021.09 29.024 1020.79 28.832C1020.48 28.6293 1020.1 28.528 1019.65 28.528C1018.87 28.528 1018.27 28.8427 1017.84 29.472C1017.41 30.0907 1017.2 31.0667 1017.2 32.4ZM1027.94 26.8V30.352C1027.94 30.992 1028.06 31.472 1028.3 31.792C1028.56 32.1013 1028.98 32.256 1029.55 32.256C1029.96 32.256 1030.34 32.2133 1030.69 32.128C1031.05 32.032 1031.34 31.8933 1031.55 31.712V26.8H1033.74V38H1031.55V33.488C1031.27 33.648 1030.9 33.7973 1030.43 33.936C1029.97 34.064 1029.42 34.128 1028.78 34.128C1028.34 34.128 1027.93 34.0747 1027.55 33.968C1027.19 33.8507 1026.87 33.6693 1026.59 33.424C1026.33 33.168 1026.12 32.848 1025.97 32.464C1025.82 32.0693 1025.74 31.5947 1025.74 31.04V26.8H1027.94ZM1039.41 31.744L1039.73 33.2H1039.83L1040.09 31.696L1041.77 26.8H1044.02L1041.05 34.544C1040.81 35.152 1040.58 35.68 1040.36 36.128C1040.15 36.576 1039.91 36.9493 1039.65 37.248C1039.41 37.536 1039.13 37.7547 1038.82 37.904C1038.51 38.0427 1038.15 38.112 1037.73 38.112C1037.38 38.112 1037.09 38.0853 1036.87 38.032C1036.66 37.9893 1036.42 37.888 1036.17 37.728L1036.73 35.952C1036.91 36.048 1037.07 36.1067 1037.22 36.128C1037.37 36.1493 1037.53 36.16 1037.7 36.16C1038.2 36.16 1038.56 35.7653 1038.76 34.976L1034.57 26.8H1037.14L1039.41 31.744ZM1055.71 37.536C1055.37 37.7813 1054.93 37.9573 1054.4 38.064C1053.87 38.1707 1053.33 38.224 1052.78 38.224C1052.11 38.224 1051.47 38.1227 1050.86 37.92C1050.26 37.7067 1049.73 37.3707 1049.28 36.912C1048.82 36.4427 1048.45 35.84 1048.17 35.104C1047.91 34.3573 1047.77 33.456 1047.77 32.4C1047.77 31.3013 1047.92 30.384 1048.22 29.648C1048.53 28.9013 1048.92 28.304 1049.4 27.856C1049.89 27.3973 1050.44 27.072 1051.04 26.88C1051.63 26.6773 1052.23 26.576 1052.83 26.576C1053.47 26.576 1054.01 26.6187 1054.44 26.704C1054.89 26.7893 1055.26 26.8907 1055.55 27.008L1055.12 28.864C1054.87 28.7467 1054.58 28.6613 1054.24 28.608C1053.91 28.5547 1053.5 28.528 1053.02 28.528C1052.13 28.528 1051.42 28.8427 1050.88 29.472C1050.34 30.1013 1050.08 31.0773 1050.08 32.4C1050.08 32.976 1050.14 33.504 1050.27 33.984C1050.4 34.4533 1050.59 34.8587 1050.84 35.2C1051.11 35.5307 1051.44 35.792 1051.82 35.984C1052.21 36.1653 1052.67 36.256 1053.18 36.256C1053.66 36.256 1054.07 36.208 1054.4 36.112C1054.73 36.016 1055.01 35.8933 1055.26 35.744L1055.71 37.536ZM1059.25 31.36H1060.74C1060.88 29.8347 1061.33 28.656 1062.09 27.824C1062.84 26.992 1063.9 26.576 1065.27 26.576C1066.08 26.576 1066.77 26.7147 1067.35 26.992C1067.93 27.2693 1068.39 27.664 1068.76 28.176C1069.13 28.688 1069.4 29.3013 1069.57 30.016C1069.75 30.7307 1069.85 31.5253 1069.85 32.4C1069.85 34.2667 1069.46 35.7067 1068.69 36.72C1067.93 37.7227 1066.78 38.224 1065.27 38.224C1064.57 38.224 1063.94 38.1067 1063.4 37.872C1062.86 37.6373 1062.41 37.3067 1062.04 36.88C1061.66 36.4533 1061.37 35.936 1061.16 35.328C1060.94 34.72 1060.81 34.048 1060.74 33.312H1059.25V38H1057.06V26.8H1059.25V31.36ZM1062.98 32.4C1062.98 32.9653 1063.02 33.488 1063.09 33.968C1063.18 34.4373 1063.31 34.8427 1063.48 35.184C1063.66 35.5253 1063.89 35.792 1064.18 35.984C1064.48 36.176 1064.84 36.272 1065.27 36.272C1066.05 36.272 1066.62 35.968 1066.98 35.36C1067.35 34.752 1067.54 33.7653 1067.54 32.4C1067.54 31.856 1067.5 31.3493 1067.43 30.88C1067.37 30.4107 1067.25 30 1067.08 29.648C1066.91 29.296 1066.67 29.024 1066.37 28.832C1066.09 28.6293 1065.72 28.528 1065.27 28.528C1064.5 28.528 1063.93 28.8427 1063.54 29.472C1063.17 30.0907 1062.98 31.0667 1062.98 32.4ZM1080.95 40H1079.4L1079.16 38H1071.96L1071.72 40H1070.16V36.048H1071.35C1071.42 35.9307 1071.55 35.6693 1071.72 35.264C1071.89 34.8587 1072.06 34.288 1072.23 33.552C1072.4 32.8053 1072.54 31.8773 1072.66 30.768C1072.78 29.648 1072.83 28.3253 1072.82 26.8H1079.52V36.048H1080.95V40ZM1077.33 36.048V28.752H1074.85C1074.79 30.6507 1074.63 32.208 1074.39 33.424C1074.15 34.6293 1073.91 35.504 1073.67 36.048H1077.33ZM1087.71 35.52H1084.27L1083.42 38H1081.23L1085.26 26.72H1086.87L1090.91 38H1088.6L1087.71 35.52ZM1084.83 33.76H1087.23L1086.39 31.264L1086.06 29.504H1085.98L1085.64 31.28L1084.83 33.76ZM1092.51 26.8H1094.66V32.064L1094.24 34.672H1092.93L1092.51 32.064V26.8ZM1092.29 36.944C1092.29 36.5707 1092.41 36.2773 1092.64 36.064C1092.88 35.84 1093.19 35.728 1093.57 35.728C1093.98 35.728 1094.3 35.84 1094.53 36.064C1094.76 36.2773 1094.88 36.5707 1094.88 36.944C1094.88 37.3173 1094.76 37.616 1094.53 37.84C1094.3 38.064 1093.98 38.176 1093.57 38.176C1093.19 38.176 1092.88 38.064 1092.64 37.84C1092.41 37.616 1092.29 37.3173 1092.29 36.944Z" fill="white"/>
<defs>
<clipPath id="clip0_33716_713">
<rect width="140" height="70" fill="white" transform="translate(70)"/>
</clipPath>
</defs>
</svg>
